<svg width="44" height="18" viewBox="0 0 44 18" fill="none" xmlns="http://www.w3.org/2000/svg">
<path d="M10.5211 11.382C10.5211 12.354 10.1791 13.176 9.49506 13.848C8.82306 14.508 7.91706 14.922 6.77706 15.09V17.088H4.94106V15.126C4.13706 15.066 3.38706 14.91 2.69106 14.658C2.00706 14.406 1.40706 14.064 0.891062 13.632L1.68306 11.94C2.72706 12.756 3.85506 13.206 5.06706 13.29V9.546C4.26306 9.342 3.58506 9.12 3.03306 8.88C2.48106 8.628 2.01906 8.262 1.64706 7.782C1.27506 7.29 1.08906 6.654 1.08906 5.874C1.08906 5.226 1.25106 4.638 1.57506 4.11C1.89906 3.57 2.34906 3.126 2.92506 2.778C3.51306 2.418 4.18506 2.19 4.94106 2.094V0.0959988H6.77706V2.076C7.47306 2.16 8.12706 2.328 8.73906 2.58C9.35106 2.832 9.86706 3.15 10.2871 3.534L9.49506 5.226C8.61906 4.506 7.67106 4.074 6.65106 3.93V7.836C7.45506 8.04 8.12106 8.262 8.64906 8.502C9.17706 8.73 9.62106 9.078 9.98106 9.546C10.3411 10.014 10.5211 10.626 10.5211 11.382ZM3.41106 5.748C3.41106 6.168 3.55506 6.51 3.84306 6.774C4.13106 7.026 4.53906 7.242 5.06706 7.422V3.948C4.55106 4.056 4.14306 4.266 3.84306 4.578C3.55506 4.89 3.41106 5.28 3.41106 5.748ZM6.65106 13.2C7.15506 13.092 7.53906 12.894 7.80306 12.606C8.06706 12.306 8.19906 11.922 8.19906 11.454C8.19906 11.082 8.06706 10.782 7.80306 10.554C7.53906 10.326 7.15506 10.134 6.65106 9.978V13.2ZM21.08 13.11V15H13.178V13.11H15.986V4.848L13.376 6.414V4.344L16.94 2.184H18.29V13.11H21.08ZM27.445 15.162C25.921 15.162 24.757 14.604 23.953 13.488C23.161 12.36 22.765 10.722 22.765 8.574C22.765 6.462 23.161 4.848 23.953 3.732C24.757 2.616 25.921 2.058 27.445 2.058C28.969 2.058 30.127 2.616 30.919 3.732C31.723 4.836 32.125 6.45 32.125 8.574C32.125 10.71 31.723 12.342 30.919 13.47C30.127 14.598 28.969 15.162 27.445 15.162ZM27.445 13.344C28.273 13.344 28.873 12.966 29.245 12.21C29.629 11.442 29.821 10.23 29.821 8.574C29.821 6.942 29.629 5.754 29.245 5.01C28.873 4.254 28.273 3.876 27.445 3.876C26.617 3.876 26.011 4.254 25.627 5.01C25.255 5.754 25.069 6.942 25.069 8.574C25.069 10.23 25.255 11.442 25.627 12.21C26.011 12.966 26.617 13.344 27.445 13.344ZM38.328 15.162C36.804 15.162 35.64 14.604 34.836 13.488C34.044 12.36 33.648 10.722 33.648 8.574C33.648 6.462 34.044 4.848 34.836 3.732C35.64 2.616 36.804 2.058 38.328 2.058C39.852 2.058 41.01 2.616 41.802 3.732C42.606 4.836 43.008 6.45 43.008 8.574C43.008 10.71 42.606 12.342 41.802 13.47C41.01 14.598 39.852 15.162 38.328 15.162ZM38.328 13.344C39.156 13.344 39.756 12.966 40.128 12.21C40.512 11.442 40.704 10.23 40.704 8.574C40.704 6.942 40.512 5.754 40.128 5.01C39.756 4.254 39.156 3.876 38.328 3.876C37.5 3.876 36.894 4.254 36.51 5.01C36.138 5.754 35.952 6.942 35.952 8.574C35.952 10.23 36.138 11.442 36.51 12.21C36.894 12.966 37.5 13.344 38.328 13.344Z" fill="#7AC751"/>
</svg>
