<svg width="44" height="18" viewBox="0 0 44 18" fill="none" xmlns="http://www.w3.org/2000/svg">
<path d="M10.5123 11.382C10.5123 12.354 10.1703 13.176 9.48627 13.848C8.81427 14.508 7.90827 14.922 6.76827 15.09V17.088H4.93227V15.126C4.12827 15.066 3.37827 14.91 2.68227 14.658C1.99827 14.406 1.39827 14.064 0.882273 13.632L1.67427 11.94C2.71827 12.756 3.84627 13.206 5.05827 13.29V9.546C4.25427 9.342 3.57627 9.12 3.02427 8.88C2.47227 8.628 2.01027 8.262 1.63827 7.782C1.26627 7.29 1.08027 6.654 1.08027 5.874C1.08027 5.226 1.24227 4.638 1.56627 4.11C1.89027 3.57 2.34027 3.126 2.91627 2.778C3.50427 2.418 4.17627 2.19 4.93227 2.094V0.0959988H6.76827V2.076C7.46427 2.16 8.11827 2.328 8.73027 2.58C9.34227 2.832 9.85827 3.15 10.2783 3.534L9.48627 5.226C8.61027 4.506 7.66227 4.074 6.64227 3.93V7.836C7.44627 8.04 8.11227 8.262 8.64027 8.502C9.16827 8.73 9.61227 9.078 9.97227 9.546C10.3323 10.014 10.5123 10.626 10.5123 11.382ZM3.40227 5.748C3.40227 6.168 3.54627 6.51 3.83427 6.774C4.12227 7.026 4.53027 7.242 5.05827 7.422V3.948C4.54227 4.056 4.13427 4.266 3.83427 4.578C3.54627 4.89 3.40227 5.28 3.40227 5.748ZM6.64227 13.2C7.14627 13.092 7.53027 12.894 7.79427 12.606C8.05827 12.306 8.19027 11.922 8.19027 11.454C8.19027 11.082 8.05827 10.782 7.79427 10.554C7.53027 10.326 7.14627 10.134 6.64227 9.978V13.2ZM21.0712 13.11V15H13.1692V13.11H15.9772V4.848L13.3672 6.414V4.344L16.9312 2.184H18.2812V13.11H21.0712ZM31.9182 13.11V15H23.3142V13.29L27.6702 8.592C28.1862 8.028 28.5642 7.512 28.8042 7.044C29.0442 6.576 29.1642 6.114 29.1642 5.658C29.1642 5.07 28.9902 4.626 28.6422 4.326C28.3062 4.026 27.8202 3.876 27.1842 3.876C26.0562 3.876 24.8982 4.32 23.7102 5.208L22.9362 3.516C23.4402 3.06 24.0882 2.7 24.8802 2.436C25.6722 2.16 26.4702 2.022 27.2742 2.022C28.5582 2.022 29.5722 2.34 30.3162 2.976C31.0722 3.6 31.4502 4.446 31.4502 5.514C31.4502 6.246 31.2882 6.936 30.9642 7.584C30.6522 8.232 30.1242 8.958 29.3802 9.762L26.2302 13.11H31.9182ZM38.3368 15.162C36.8128 15.162 35.6488 14.604 34.8448 13.488C34.0528 12.36 33.6568 10.722 33.6568 8.574C33.6568 6.462 34.0528 4.848 34.8448 3.732C35.6488 2.616 36.8128 2.058 38.3368 2.058C39.8608 2.058 41.0188 2.616 41.8108 3.732C42.6148 4.836 43.0168 6.45 43.0168 8.574C43.0168 10.71 42.6148 12.342 41.8108 13.47C41.0188 14.598 39.8608 15.162 38.3368 15.162ZM38.3368 13.344C39.1648 13.344 39.7648 12.966 40.1368 12.21C40.5208 11.442 40.7128 10.23 40.7128 8.574C40.7128 6.942 40.5208 5.754 40.1368 5.01C39.7648 4.254 39.1648 3.876 38.3368 3.876C37.5088 3.876 36.9028 4.254 36.5188 5.01C36.1468 5.754 35.9608 6.942 35.9608 8.574C35.9608 10.23 36.1468 11.442 36.5188 12.21C36.9028 12.966 37.5088 13.344 38.3368 13.344Z" fill="#7AC751"/>
</svg>
