<svg width="42" height="18" viewBox="0 0 42 18" fill="none" xmlns="http://www.w3.org/2000/svg">
<path d="M9.35906 11.454C9.35906 12.426 9.01706 13.242 8.33306 13.902C7.64906 14.55 6.74306 14.946 5.61506 15.09V17.088H4.10306V15.126C2.42306 15.018 1.05506 14.496 -0.000937678 13.56L0.665062 12.174C1.22906 12.63 1.79306 12.972 2.35706 13.2C2.92106 13.428 3.53306 13.566 4.19306 13.614V9.42C3.36506 9.204 2.67506 8.976 2.12306 8.736C1.58306 8.496 1.12706 8.142 0.755062 7.674C0.395062 7.194 0.215062 6.57 0.215062 5.802C0.215062 5.154 0.377062 4.566 0.701062 4.038C1.03706 3.498 1.49906 3.06 2.08706 2.724C2.67506 2.376 3.34706 2.16 4.10306 2.076V0.0959988H5.61506V2.076C6.32306 2.16 6.98306 2.334 7.59506 2.598C8.21906 2.862 8.74706 3.198 9.17906 3.606L8.51306 4.992C7.62506 4.2 6.63506 3.738 5.54306 3.606V8.034C6.33506 8.226 6.98906 8.442 7.50506 8.682C8.03306 8.91 8.47106 9.246 8.81906 9.69C9.17906 10.134 9.35906 10.722 9.35906 11.454ZM2.08706 5.712C2.08706 6.24 2.26706 6.654 2.62706 6.954C2.99906 7.242 3.52106 7.482 4.19306 7.674V3.588C3.53306 3.684 3.01706 3.918 2.64506 4.29C2.27306 4.662 2.08706 5.136 2.08706 5.712ZM5.54306 13.56C6.16706 13.452 6.64706 13.224 6.98306 12.876C7.31906 12.516 7.48706 12.06 7.48706 11.508C7.48706 11.064 7.31906 10.71 6.98306 10.446C6.65906 10.182 6.17906 9.954 5.54306 9.762V13.56ZM19.828 13.47V15H12.34V13.47H15.148V4.398L12.538 6.018V4.308L15.94 2.184H17.02V13.47H19.828ZM30.855 13.47V15H22.449V13.614L26.859 8.772C27.423 8.148 27.831 7.584 28.083 7.08C28.347 6.564 28.479 6.054 28.479 5.55C28.479 4.902 28.293 4.41 27.921 4.074C27.549 3.726 27.009 3.552 26.301 3.552C25.113 3.552 23.925 4.02 22.737 4.956L22.071 3.588C22.575 3.12 23.217 2.748 23.997 2.472C24.777 2.184 25.563 2.04 26.355 2.04C27.579 2.04 28.545 2.346 29.253 2.958C29.973 3.57 30.333 4.398 30.333 5.442C30.333 6.186 30.171 6.894 29.847 7.566C29.523 8.226 28.983 8.964 28.227 9.78L24.807 13.47H30.855ZM37.328 15.144C35.84 15.144 34.706 14.586 33.926 13.47C33.146 12.354 32.756 10.728 32.756 8.592C32.756 6.456 33.146 4.83 33.926 3.714C34.706 2.598 35.84 2.04 37.328 2.04C38.816 2.04 39.95 2.598 40.73 3.714C41.51 4.818 41.9 6.438 41.9 8.574C41.9 10.722 41.51 12.354 40.73 13.47C39.95 14.586 38.816 15.144 37.328 15.144ZM37.328 13.65C38.252 13.65 38.93 13.242 39.362 12.426C39.806 11.598 40.028 10.314 40.028 8.574C40.028 6.834 39.812 5.562 39.38 4.758C38.948 3.954 38.264 3.552 37.328 3.552C36.404 3.552 35.72 3.96 35.276 4.776C34.844 5.58 34.628 6.846 34.628 8.574C34.628 10.314 34.844 11.598 35.276 12.426C35.72 13.242 36.404 13.65 37.328 13.65Z" fill="#CCCCCC"/>
<path d="M-0.720938 9.564H42.728V10.464H-0.720938V9.564Z" fill="#CCCCCC"/>
</svg>
