<svg width="44" height="18" viewBox="0 0 44 18" fill="none" xmlns="http://www.w3.org/2000/svg">
<path d="M10.5211 11.382C10.5211 12.354 10.1791 13.176 9.49506 13.848C8.82306 14.508 7.91706 14.922 6.77706 15.09V17.088H4.94106V15.126C4.13706 15.066 3.38706 14.91 2.69106 14.658C2.00706 14.406 1.40706 14.064 0.891062 13.632L1.68306 11.94C2.72706 12.756 3.85506 13.206 5.06706 13.29V9.546C4.26306 9.342 3.58506 9.12 3.03306 8.88C2.48106 8.628 2.01906 8.262 1.64706 7.782C1.27506 7.29 1.08906 6.654 1.08906 5.874C1.08906 5.226 1.25106 4.638 1.57506 4.11C1.89906 3.57 2.34906 3.126 2.92506 2.778C3.51306 2.418 4.18506 2.19 4.94106 2.094V0.0959988H6.77706V2.076C7.47306 2.16 8.12706 2.328 8.73906 2.58C9.35106 2.832 9.86706 3.15 10.2871 3.534L9.49506 5.226C8.61906 4.506 7.67106 4.074 6.65106 3.93V7.836C7.45506 8.04 8.12106 8.262 8.64906 8.502C9.17706 8.73 9.62106 9.078 9.98106 9.546C10.3411 10.014 10.5211 10.626 10.5211 11.382ZM3.41106 5.748C3.41106 6.168 3.55506 6.51 3.84306 6.774C4.13106 7.026 4.53906 7.242 5.06706 7.422V3.948C4.55106 4.056 4.14306 4.266 3.84306 4.578C3.55506 4.89 3.41106 5.28 3.41106 5.748ZM6.65106 13.2C7.15506 13.092 7.53906 12.894 7.80306 12.606C8.06706 12.306 8.19906 11.922 8.19906 11.454C8.19906 11.082 8.06706 10.782 7.80306 10.554C7.53906 10.326 7.15506 10.134 6.65106 9.978V13.2ZM21.08 13.11V15H13.178V13.11H15.986V4.848L13.376 6.414V4.344L16.94 2.184H18.29V13.11H21.08ZM29.425 8.412C30.181 8.616 30.757 8.988 31.153 9.528C31.561 10.068 31.765 10.734 31.765 11.526C31.765 12.642 31.351 13.524 30.523 14.172C29.707 14.82 28.603 15.144 27.211 15.144C26.347 15.144 25.513 15.012 24.709 14.748C23.917 14.484 23.263 14.118 22.747 13.65L23.539 11.958C24.679 12.846 25.873 13.29 27.121 13.29C27.937 13.29 28.543 13.128 28.939 12.804C29.347 12.48 29.551 11.988 29.551 11.328C29.551 10.68 29.347 10.206 28.939 9.906C28.531 9.594 27.901 9.438 27.049 9.438H25.357V7.584H26.743C28.399 7.584 29.227 6.954 29.227 5.694C29.227 5.106 29.047 4.656 28.687 4.344C28.327 4.032 27.823 3.876 27.175 3.876C26.023 3.876 24.871 4.32 23.719 5.208L22.945 3.516C23.461 3.06 24.109 2.7 24.889 2.436C25.681 2.16 26.491 2.022 27.319 2.022C28.579 2.022 29.581 2.334 30.325 2.958C31.081 3.57 31.459 4.392 31.459 5.424C31.447 6.132 31.261 6.75 30.901 7.278C30.553 7.794 30.061 8.172 29.425 8.412ZM38.328 15.162C36.804 15.162 35.64 14.604 34.836 13.488C34.044 12.36 33.648 10.722 33.648 8.574C33.648 6.462 34.044 4.848 34.836 3.732C35.64 2.616 36.804 2.058 38.328 2.058C39.852 2.058 41.01 2.616 41.802 3.732C42.606 4.836 43.008 6.45 43.008 8.574C43.008 10.71 42.606 12.342 41.802 13.47C41.01 14.598 39.852 15.162 38.328 15.162ZM38.328 13.344C39.156 13.344 39.756 12.966 40.128 12.21C40.512 11.442 40.704 10.23 40.704 8.574C40.704 6.942 40.512 5.754 40.128 5.01C39.756 4.254 39.156 3.876 38.328 3.876C37.5 3.876 36.894 4.254 36.51 5.01C36.138 5.754 35.952 6.942 35.952 8.574C35.952 10.23 36.138 11.442 36.51 12.21C36.894 12.966 37.5 13.344 38.328 13.344Z" fill="#7AC751"/>
</svg>
