<svg width="42" height="18" viewBox="0 0 42 18" fill="none" xmlns="http://www.w3.org/2000/svg">
<path d="M9.35906 11.454C9.35906 12.426 9.01706 13.242 8.33306 13.902C7.64906 14.55 6.74306 14.946 5.61506 15.09V17.088H4.10306V15.126C2.42306 15.018 1.05506 14.496 -0.000937678 13.56L0.665062 12.174C1.22906 12.63 1.79306 12.972 2.35706 13.2C2.92106 13.428 3.53306 13.566 4.19306 13.614V9.42C3.36506 9.204 2.67506 8.976 2.12306 8.736C1.58306 8.496 1.12706 8.142 0.755062 7.674C0.395062 7.194 0.215062 6.57 0.215062 5.802C0.215062 5.154 0.377062 4.566 0.701062 4.038C1.03706 3.498 1.49906 3.06 2.08706 2.724C2.67506 2.376 3.34706 2.16 4.10306 2.076V0.0959988H5.61506V2.076C6.32306 2.16 6.98306 2.334 7.59506 2.598C8.21906 2.862 8.74706 3.198 9.17906 3.606L8.51306 4.992C7.62506 4.2 6.63506 3.738 5.54306 3.606V8.034C6.33506 8.226 6.98906 8.442 7.50506 8.682C8.03306 8.91 8.47106 9.246 8.81906 9.69C9.17906 10.134 9.35906 10.722 9.35906 11.454ZM2.08706 5.712C2.08706 6.24 2.26706 6.654 2.62706 6.954C2.99906 7.242 3.52106 7.482 4.19306 7.674V3.588C3.53306 3.684 3.01706 3.918 2.64506 4.29C2.27306 4.662 2.08706 5.136 2.08706 5.712ZM5.54306 13.56C6.16706 13.452 6.64706 13.224 6.98306 12.876C7.31906 12.516 7.48706 12.06 7.48706 11.508C7.48706 11.064 7.31906 10.71 6.98306 10.446C6.65906 10.182 6.17906 9.954 5.54306 9.762V13.56ZM19.972 13.47V15H11.566V13.614L15.976 8.772C16.54 8.148 16.948 7.584 17.2 7.08C17.464 6.564 17.596 6.054 17.596 5.55C17.596 4.902 17.41 4.41 17.038 4.074C16.666 3.726 16.126 3.552 15.418 3.552C14.23 3.552 13.042 4.02 11.854 4.956L11.188 3.588C11.692 3.12 12.334 2.748 13.114 2.472C13.894 2.184 14.68 2.04 15.472 2.04C16.696 2.04 17.662 2.346 18.37 2.958C19.09 3.57 19.45 4.398 19.45 5.442C19.45 6.186 19.288 6.894 18.964 7.566C18.64 8.226 18.1 8.964 17.344 9.78L13.924 13.47H19.972ZM27.057 6.882C27.861 6.882 28.563 7.056 29.163 7.404C29.775 7.74 30.243 8.22 30.567 8.844C30.903 9.456 31.071 10.164 31.071 10.968C31.071 11.796 30.885 12.522 30.513 13.146C30.153 13.77 29.631 14.256 28.947 14.604C28.263 14.952 27.465 15.126 26.553 15.126C25.761 15.126 24.981 14.988 24.213 14.712C23.445 14.436 22.809 14.058 22.305 13.578L22.953 12.21C24.141 13.146 25.347 13.614 26.571 13.614C27.423 13.614 28.083 13.386 28.551 12.93C29.031 12.462 29.271 11.82 29.271 11.004C29.271 10.224 29.031 9.594 28.551 9.114C28.083 8.634 27.453 8.394 26.661 8.394C25.509 8.394 24.585 8.832 23.889 9.708H22.683V2.184H30.531V3.678H24.519V7.746C25.203 7.17 26.049 6.882 27.057 6.882ZM37.328 15.144C35.84 15.144 34.706 14.586 33.926 13.47C33.146 12.354 32.756 10.728 32.756 8.592C32.756 6.456 33.146 4.83 33.926 3.714C34.706 2.598 35.84 2.04 37.328 2.04C38.816 2.04 39.95 2.598 40.73 3.714C41.51 4.818 41.9 6.438 41.9 8.574C41.9 10.722 41.51 12.354 40.73 13.47C39.95 14.586 38.816 15.144 37.328 15.144ZM37.328 13.65C38.252 13.65 38.93 13.242 39.362 12.426C39.806 11.598 40.028 10.314 40.028 8.574C40.028 6.834 39.812 5.562 39.38 4.758C38.948 3.954 38.264 3.552 37.328 3.552C36.404 3.552 35.72 3.96 35.276 4.776C34.844 5.58 34.628 6.846 34.628 8.574C34.628 10.314 34.844 11.598 35.276 12.426C35.72 13.242 36.404 13.65 37.328 13.65Z" fill="#CCCCCC"/>
<path d="M-0.720938 9.564H42.728V10.464H-0.720938V9.564Z" fill="#CCCCCC"/>
</svg>
