<svg width="44" height="18" viewBox="0 0 44 18" fill="none" xmlns="http://www.w3.org/2000/svg">
<path d="M10.5211 11.382C10.5211 12.354 10.1791 13.176 9.49506 13.848C8.82306 14.508 7.91706 14.922 6.77706 15.09V17.088H4.94106V15.126C4.13706 15.066 3.38706 14.91 2.69106 14.658C2.00706 14.406 1.40706 14.064 0.891062 13.632L1.68306 11.94C2.72706 12.756 3.85506 13.206 5.06706 13.29V9.546C4.26306 9.342 3.58506 9.12 3.03306 8.88C2.48106 8.628 2.01906 8.262 1.64706 7.782C1.27506 7.29 1.08906 6.654 1.08906 5.874C1.08906 5.226 1.25106 4.638 1.57506 4.11C1.89906 3.57 2.34906 3.126 2.92506 2.778C3.51306 2.418 4.18506 2.19 4.94106 2.094V0.0959988H6.77706V2.076C7.47306 2.16 8.12706 2.328 8.73906 2.58C9.35106 2.832 9.86706 3.15 10.2871 3.534L9.49506 5.226C8.61906 4.506 7.67106 4.074 6.65106 3.93V7.836C7.45506 8.04 8.12106 8.262 8.64906 8.502C9.17706 8.73 9.62106 9.078 9.98106 9.546C10.3411 10.014 10.5211 10.626 10.5211 11.382ZM3.41106 5.748C3.41106 6.168 3.55506 6.51 3.84306 6.774C4.13106 7.026 4.53906 7.242 5.06706 7.422V3.948C4.55106 4.056 4.14306 4.266 3.84306 4.578C3.55506 4.89 3.41106 5.28 3.41106 5.748ZM6.65106 13.2C7.15506 13.092 7.53906 12.894 7.80306 12.606C8.06706 12.306 8.19906 11.922 8.19906 11.454C8.19906 11.082 8.06706 10.782 7.80306 10.554C7.53906 10.326 7.15506 10.134 6.65106 9.978V13.2ZM21.08 13.11V15H13.178V13.11H15.986V4.848L13.376 6.414V4.344L16.94 2.184H18.29V13.11H21.08ZM29.605 8.412C30.433 8.616 31.081 8.994 31.549 9.546C32.017 10.098 32.251 10.764 32.251 11.544C32.251 12.276 32.047 12.918 31.639 13.47C31.243 14.01 30.679 14.424 29.947 14.712C29.227 15 28.393 15.144 27.445 15.144C26.497 15.144 25.657 15 24.925 14.712C24.205 14.424 23.641 14.01 23.233 13.47C22.837 12.918 22.639 12.276 22.639 11.544C22.639 10.764 22.873 10.098 23.341 9.546C23.809 8.994 24.457 8.616 25.285 8.412C24.565 8.172 23.995 7.794 23.575 7.278C23.167 6.762 22.963 6.162 22.963 5.478C22.963 4.782 23.155 4.176 23.539 3.66C23.923 3.132 24.451 2.73 25.123 2.454C25.807 2.166 26.581 2.022 27.445 2.022C28.309 2.022 29.077 2.166 29.749 2.454C30.433 2.73 30.967 3.132 31.351 3.66C31.735 4.176 31.927 4.782 31.927 5.478C31.927 6.174 31.717 6.786 31.297 7.314C30.889 7.83 30.325 8.196 29.605 8.412ZM27.445 3.84C26.737 3.84 26.179 4.002 25.771 4.326C25.363 4.65 25.159 5.112 25.159 5.712C25.159 6.276 25.363 6.738 25.771 7.098C26.191 7.446 26.749 7.674 27.445 7.782C28.141 7.674 28.693 7.446 29.101 7.098C29.521 6.738 29.731 6.276 29.731 5.712C29.731 5.112 29.527 4.65 29.119 4.326C28.711 4.002 28.153 3.84 27.445 3.84ZM27.445 13.326C28.261 13.326 28.897 13.158 29.353 12.822C29.821 12.486 30.055 12.006 30.055 11.382C30.055 10.794 29.815 10.32 29.335 9.96C28.867 9.6 28.237 9.366 27.445 9.258C26.653 9.366 26.017 9.6 25.537 9.96C25.069 10.32 24.835 10.794 24.835 11.382C24.835 12.006 25.063 12.486 25.519 12.822C25.987 13.158 26.629 13.326 27.445 13.326ZM38.328 15.162C36.804 15.162 35.64 14.604 34.836 13.488C34.044 12.36 33.648 10.722 33.648 8.574C33.648 6.462 34.044 4.848 34.836 3.732C35.64 2.616 36.804 2.058 38.328 2.058C39.852 2.058 41.01 2.616 41.802 3.732C42.606 4.836 43.008 6.45 43.008 8.574C43.008 10.71 42.606 12.342 41.802 13.47C41.01 14.598 39.852 15.162 38.328 15.162ZM38.328 13.344C39.156 13.344 39.756 12.966 40.128 12.21C40.512 11.442 40.704 10.23 40.704 8.574C40.704 6.942 40.512 5.754 40.128 5.01C39.756 4.254 39.156 3.876 38.328 3.876C37.5 3.876 36.894 4.254 36.51 5.01C36.138 5.754 35.952 6.942 35.952 8.574C35.952 10.23 36.138 11.442 36.51 12.21C36.894 12.966 37.5 13.344 38.328 13.344Z" fill="#7AC751"/>
</svg>
